<svg width="100" height="160" viewBox="0 0 100 160" fill="none" xmlns="http://www.w3.org/2000/svg">
<path d="M0 80H100" stroke="black" stroke-width="2"/>
<path d="M42.8375 78.2125V58.2475C48.4625 56.7925 52.6025 51.7225 52.6025 45.6475C52.6025 44.3125 52.4075 43.0375 52.0325 41.8375L63.8525 35.0125C64.7675 35.5075 65.8025 35.8225 66.9275 35.8225C70.5125 35.8225 73.4375 32.9125 73.4375 29.2975C73.4375 25.7125 70.5125 22.7875 66.9275 22.7875C63.3125 22.7875 60.4025 25.7125 60.4025 29.2975C60.4025 29.3725 60.4175 29.4175 60.4175 29.4775L48.6275 36.2875C46.2875 34.0225 43.0925 32.6275 39.5825 32.6275C32.3825 32.6275 26.5625 38.4475 26.5625 45.6475C26.5625 51.7225 30.7175 56.7925 36.3275 58.2475V78.2125" stroke="black" stroke-width="4" stroke-miterlimit="10" stroke-linecap="round"/>
</svg>
