<svg width="100" height="160" viewBox="0 0 100 160" fill="none" xmlns="http://www.w3.org/2000/svg">
<path d="M0 80H100" stroke="black" stroke-width="2"/>
<path d="M75.6945 80L73.9695 75.065H66.6195L64.9095 80H60.8745L67.9095 60.695H72.6645L79.6845 80H75.6945ZM70.2945 63.665L70.2045 63.965C70.1245 64.305 70.0145 64.68 69.8745 65.09C69.7445 65.51 68.9645 67.82 67.5345 72.02H73.0695L71.1795 66.485L70.5795 64.625L70.2945 63.665ZM55.4145 80L53.7045 75.065H46.3545L44.6295 80H40.5795L47.6445 60.695H52.3995L59.4195 80H55.4145ZM50.0145 63.665L49.9245 63.965C49.8345 64.305 49.7245 64.68 49.5945 65.09C49.4745 65.51 48.6945 67.82 47.2545 72.02H52.7895L50.8845 66.485L50.2995 64.625L50.0145 63.665ZM35.1345 80L33.4245 75.065H26.0595L24.3645 80H20.3145L27.3495 60.695H32.1195L39.1395 80H35.1345ZM29.7495 63.665L29.6595 63.965C29.5695 64.305 29.4595 64.68 29.3295 65.09C29.1995 65.51 28.4095 67.82 26.9595 72.02H32.5245L30.6195 66.485L30.0195 64.625L29.7495 63.665Z" fill="black"/>
</svg>
