<svg width="100" height="160" viewBox="0 0 100 160" fill="none" xmlns="http://www.w3.org/2000/svg">
<path d="M0 80H100" stroke="black" stroke-width="2"/>
<rect x="50" y="46.7157" width="20" height="20" transform="rotate(45 50 46.7157)" stroke="black" stroke-width="4" stroke-linejoin="round"/>
<path d="M48.4034 63.0907V62.943C48.4072 62.2574 48.4716 61.7119 48.5966 61.3066C48.7254 60.9013 48.9072 60.5756 49.142 60.3293C49.3769 60.0793 49.6629 59.8502 50 59.6418C50.2311 59.4979 50.4375 59.3407 50.6193 59.1703C50.8049 58.996 50.9508 58.8028 51.0568 58.5907C51.1629 58.3748 51.2159 58.1343 51.2159 57.8691C51.2159 57.5699 51.1458 57.3104 51.0057 57.0907C50.8655 56.871 50.6761 56.7006 50.4375 56.5794C50.2027 56.4581 49.9394 56.3975 49.6477 56.3975C49.3788 56.3975 49.1231 56.4562 48.8807 56.5737C48.642 56.6873 48.4432 56.8615 48.2841 57.0964C48.1288 57.3275 48.0417 57.621 48.0227 57.9771H46C46.0189 57.2574 46.1932 56.6551 46.5227 56.1703C46.8561 55.6854 47.2955 55.3218 47.8409 55.0793C48.3902 54.8369 48.9962 54.7157 49.6591 54.7157C50.3826 54.7157 51.0189 54.8426 51.5682 55.0964C52.1212 55.3502 52.5511 55.7119 52.858 56.1816C53.1686 56.6475 53.3239 57.2006 53.3239 57.8407C53.3239 58.2725 53.2538 58.6589 53.1136 58.9998C52.9773 59.3407 52.7822 59.6437 52.5284 59.9089C52.2746 60.174 51.9735 60.4108 51.625 60.6191C51.3182 60.8085 51.0663 61.0055 50.8693 61.21C50.6761 61.4146 50.5322 61.6551 50.4375 61.9316C50.3466 62.2044 50.2992 62.5415 50.2955 62.943V63.0907H48.4034ZM49.392 66.6362C49.0511 66.6362 48.7576 66.515 48.5114 66.2725C48.2652 66.0301 48.142 65.7347 48.142 65.3862C48.142 65.0453 48.2652 64.7536 48.5114 64.5112C48.7576 64.2687 49.0511 64.1475 49.392 64.1475C49.7292 64.1475 50.0208 64.2687 50.267 64.5112C50.517 64.7536 50.642 65.0453 50.642 65.3862C50.642 65.6172 50.5833 65.8275 50.4659 66.0169C50.3523 66.2062 50.2008 66.3578 50.0114 66.4714C49.8258 66.5812 49.6193 66.6362 49.392 66.6362Z" fill="black"/>
</svg>
